<svg xmlns="http://www.w3.org/2000/svg" width="48" height="48" viewBox="0 0 48 48" role="img" aria-label="Phone">
  <circle cx="24" cy="24" r="21" fill="none" stroke="#F16623" stroke-width="2.2"/>
  <path d="M17.2 15.8c.8-.8 2.1-.7 2.8.2l2.2 2.8c.5.7.5 1.6 0 2.3l-1.3 1.7c1.4 2.8 3.6 5 6.4 6.4l1.7-1.3c.7-.5 1.6-.5 2.3 0l2.8 2.2c.9.7 1 2 .2 2.8l-1.4 1.4c-.9.9-2.2 1.3-3.4 1-8.2-2-14.8-8.6-16.8-16.8-.3-1.2.1-2.5 1-3.4l1.5-1.3z" fill="none" stroke="#F16623" stroke-width="2.2" stroke-linecap="round" stroke-linejoin="round"/>
</svg>
